<svg xmlns="http://www.w3.org/2000/svg" viewBox="0 0 862.31 454.59"><defs><style>.cls-1{fill:#262626;}.cls-2{fill:#f2ae1d;}</style></defs><title>Asset 8</title><g id="Layer_2" data-name="Layer 2"><g id="Layer_1-2" data-name="Layer 1"><g id="Black"><path class="cls-1" d="M0,268.42V268q19.41,0,27.86-13.74t8.44-33.22V142.37A59.62,59.62,0,0,1,41,118.67,60.65,60.65,0,0,1,73.23,86.31a59.23,59.23,0,0,1,23.85-4.87V95.37a43.78,43.78,0,0,0-18.15,3.81A48.86,48.86,0,0,0,54,124.12a43.78,43.78,0,0,0-3.8,18.16v78.6A78.88,78.88,0,0,1,43.9,253q-6.33,14.37-18.57,22,12.22,7.61,18.57,22a78.91,78.91,0,0,1,6.33,32.13v64.66A43.84,43.84,0,0,0,54,411.92a49,49,0,0,0,24.9,24.94,43.93,43.93,0,0,0,18.15,3.8v13.93a59.39,59.39,0,0,1-23.85-4.86,61.65,61.65,0,0,1-19.35-13.08A61.38,61.38,0,0,1,36.3,393.38V328.8q0-19.41-8.44-33.14T0,281.94Z"/><path class="cls-1" d="M344.56,281.94q-19.41,0-27.85,13.72t-8.45,33.14v64.58a61.38,61.38,0,0,1-17.58,43.27,61.42,61.42,0,0,1-19.35,13.08,59.35,59.35,0,0,1-23.85,4.86V440.66a43.89,43.89,0,0,0,18.15-3.8,49,49,0,0,0,24.9-24.94,43.68,43.68,0,0,0,3.8-18.18V329.08A78.91,78.91,0,0,1,300.66,297q6.34-14.35,18.58-22-12.24-7.61-18.58-22a78.88,78.88,0,0,1-6.33-32.13v-78.6a43.62,43.62,0,0,0-3.8-18.16,48.86,48.86,0,0,0-24.9-24.94,43.74,43.74,0,0,0-18.15-3.81V81.44a59.19,59.19,0,0,1,23.85,4.87,60.65,60.65,0,0,1,32.22,32.36,59.62,59.62,0,0,1,4.71,23.7v78.68q0,19.47,8.45,33.22T344.56,268v13.93Z"/><path class="cls-1" d="M80.16,97.93A44.74,44.74,0,0,1,67.29,66.44c0-23.9,18.33-43.35,40.9-43.37h0a39.18,39.18,0,0,1,13.87,2.56C133.87,9.5,151.9,0,171.33,0h0c21.92,0,42.35,12.46,53.55,32.2a38.79,38.79,0,0,1,10.47-1.44h0A39.5,39.5,0,0,1,264.5,43.59a44.33,44.33,0,0,1,11.86,30.47,45.76,45.76,0,0,1-1.76,12.67A42.72,42.72,0,0,1,271,95.36L259.68,89a30.1,30.1,0,0,0,2.42-5.78,33,33,0,0,0,1.28-9.11A31.49,31.49,0,0,0,255,52.46a26.67,26.67,0,0,0-19.59-8.71h0a25.72,25.72,0,0,0-10.92,2.42l-5.94,2.75-2.71-6c-8.37-18.49-25.41-30-44.46-30h0C154.6,13,139.13,22.07,130,37.24l-3.28,5.42-5.49-3.14a25.84,25.84,0,0,0-13-3.46h0c-15.41,0-27.93,13.64-27.92,30.37a31.7,31.7,0,0,0,9,22.31Z"/><path class="cls-1" d="M367.53,350.39H308.05v-13h59.48A19.5,19.5,0,0,0,387,317.92v-85a19.5,19.5,0,0,0-19.48-19.48H308.05v-13h59.48A32.51,32.51,0,0,1,400,232.91v85A32.51,32.51,0,0,1,367.53,350.39Z"/><path class="cls-2" d="M269.16,150.52A36.91,36.91,0,0,1,256,169.18v67.95a13.7,13.7,0,0,1-13.69,13.7h0a13.7,13.7,0,0,1-13.7-13.7v-61a36.74,36.74,0,0,1-16.49-6.78,59.83,59.83,0,0,1-96.92-4.95,36.81,36.81,0,0,1-42.47-5.6V373A43.29,43.29,0,0,0,116,416.27H230A43.29,43.29,0,0,0,273.31,373V157.9A8.63,8.63,0,0,0,269.16,150.52ZM123.28,266.4a6.5,6.5,0,1,1,6.49-6.49A6.49,6.49,0,0,1,123.28,266.4Zm27-32.2a13,13,0,1,1,13-13A13,13,0,0,1,150.28,234.2Zm34.64,33.94a9.74,9.74,0,1,1,9.74-9.74A9.74,9.74,0,0,1,184.92,268.14Zm57.38,15.13a9.69,9.69,0,1,1,9.68-9.69A9.69,9.69,0,0,1,242.3,283.27Z"/><path class="cls-1" d="M479,52.56h13.39l25,81.65H506l-6-21.28h-28.6l-5.91,21.28H454Zm6.67,9.73L474,104.07h23.3Z"/><path class="cls-1" d="M557.06,112q0,6.78,2.49,10.23a8.48,8.48,0,0,0,7.36,3.44h11.75v8.54H565.92q-9,0-14-5.8T547,112V56.39H530.87V48.51h26.19Z"/><path class="cls-1" d="M650.37,49.11v8.37H638.94q-5.41,0-7.52,2.21t-2.11,7.85V73h21.06v7.82H629.31v53.43H619.25V80.78H602.9V73h16.35V68.69q0-10.06,4.62-14.82t14.41-4.76Z"/><path class="cls-1" d="M676.35,73h25.76v53.43h20v7.82h-50v-7.82h20V80.78h-15.7Zm15.7-23.85h10.06V61.85H692.05Z"/><path class="cls-1" d="M793.28,101.07V106H749.7v.33q0,10,5.22,15.47t14.74,5.47a35.92,35.92,0,0,0,10.06-1.53,61.43,61.43,0,0,0,11.21-4.65v10a68.44,68.44,0,0,1-11.07,3.53,48.1,48.1,0,0,1-10.31,1.17q-14.28,0-22.31-8.56t-8-23.59q0-14.65,7.87-23.41t21-8.75q11.7,0,18.46,7.93T793.28,101.07Zm-10.06-3Q783,89.26,779,84.63T767.63,80a16,16,0,0,0-12,4.81q-4.71,4.82-5.58,13.35Z"/><path class="cls-1" d="M456.7,188.56h14.77l14.11,41.56,14.22-41.56h14.82v81.65H504.39V198.07l-14.55,43h-8.36l-14.61-43v72.14H456.7Z"/><path class="cls-1" d="M555.8,207.48q12.75,0,19.5,8.26t6.75,23.9q0,15.69-6.72,23.92t-19.53,8.23q-12.74,0-19.46-8.23t-6.73-23.92q0-15.64,6.73-23.9T555.8,207.48Zm0,8.53q-7.65,0-11.59,6t-3.94,17.67q0,11.64,3.94,17.63t11.59,6q7.73,0,11.65-6t3.94-17.63q0-11.71-3.94-17.67T555.8,216Z"/><path class="cls-1" d="M625.05,271.3V216.78H607.71V209h27.4V271.3q0,10.67-4.89,16.43T616.3,293.5H602.41V285H615.2q4.93,0,7.39-3.42T625.05,271.3Zm0-86.19h10.06v12.74H625.05Z"/><path class="cls-1" d="M720.27,235.26v34.95H710.15v-9.08a20.79,20.79,0,0,1-8.12,8.06,25,25,0,0,1-11.9,2.6q-9.35,0-14.93-5.28t-5.57-14.13q0-10.23,6.86-15.53t20.15-5.31h13.51V230q-.06-7.34-3.72-10.64T694.73,216a38,38,0,0,0-10.39,1.48,45,45,0,0,0-10.23,4.32V211.75a69.11,69.11,0,0,1,10.69-3.2,48.68,48.68,0,0,1,9.93-1.07,33.88,33.88,0,0,1,13,2.24,20.49,20.49,0,0,1,8.72,6.73,17,17,0,0,1,2.95,6.75A61.49,61.49,0,0,1,720.27,235.26Zm-19.53,4.16h-3.33q-8.8,0-13.26,3.09t-4.46,9.21c0,3.68,1.11,6.55,3.33,8.59s5.31,3.06,9.25,3.06q8.31,0,13.07-5.77t4.81-15.94v-2.24Z"/><path class="cls-1" d="M795.63,221.59a22.73,22.73,0,0,0-6.56-3.67,22.5,22.5,0,0,0-7.33-1.14q-9.4,0-14.38,5.9t-5,17.07v30.46H752.27V209h10.11v12a20.47,20.47,0,0,1,7.74-10,21.89,21.89,0,0,1,12.39-3.47,24.93,24.93,0,0,1,6.94.93,22,22,0,0,1,6.18,2.9Z"/><path class="cls-1" d="M461.08,324.56h24.17q12.53,0,19.3,5.41t6.79,15.31q0,7.5-3.59,11.82c-2.38,2.88-6,4.68-10.74,5.41a19.13,19.13,0,0,1,12.6,6.86q4.57,5.67,4.57,14.41,0,11.12-7.27,16.77t-21.66,5.66H461.08Zm11.1,9.08v24.61H485q8,0,11.57-3.07t3.58-9.9c0-4.11-1.18-7.09-3.53-8.91s-6.22-2.73-11.62-2.73Zm0,33.57v29.92h13.07q9.63,0,13.73-3.37t4.1-11.07q0-8-4.32-11.73t-13.51-3.75Z"/><path class="cls-1" d="M580,371.26v34.95H569.91v-9.08a20.72,20.72,0,0,1-8.12,8.06,25,25,0,0,1-11.89,2.6q-9.36,0-14.93-5.28t-5.58-14.13q0-10.23,6.86-15.53t20.16-5.31h13.5V366q0-7.33-3.71-10.64T554.49,352a38.07,38.07,0,0,0-10.39,1.48,44.7,44.7,0,0,0-10.22,4.32V347.75a68.79,68.79,0,0,1,10.69-3.2,48.59,48.59,0,0,1,9.92-1.07,33.84,33.84,0,0,1,13,2.24,20.43,20.43,0,0,1,8.72,6.73,17,17,0,0,1,3,6.75A61.65,61.65,0,0,1,580,371.26Zm-19.52,4.16h-3.34q-8.8,0-13.26,3.09t-4.46,9.21c0,3.68,1.12,6.55,3.34,8.59s5.3,3.06,9.24,3.06q8.31,0,13.07-5.77t4.81-15.94v-2.24Z"/><path class="cls-1" d="M650.26,403.09a35.16,35.16,0,0,1-8.34,3.53,33.24,33.24,0,0,1-8.78,1.17q-14.22,0-22.23-8.53t-8-23.62q0-15.11,8-23.63t22.23-8.53a32.54,32.54,0,0,1,8.64,1.15,37.21,37.21,0,0,1,8.48,3.55v10.56a27,27,0,0,0-8-5.14,24.62,24.62,0,0,0-9.11-1.59q-9.46,0-14.55,6.13t-5.08,17.5q0,11.31,5.11,17.47t14.52,6.15a26,26,0,0,0,9.41-1.61,23.55,23.55,0,0,0,7.71-5Z"/><path class="cls-1" d="M720.27,371.26v34.95H710.15v-9.08a20.79,20.79,0,0,1-8.12,8.06,25,25,0,0,1-11.9,2.6q-9.35,0-14.93-5.28t-5.57-14.13q0-10.23,6.86-15.53t20.15-5.31h13.51V366q-.06-7.33-3.72-10.64T694.73,352a38,38,0,0,0-10.39,1.48,45,45,0,0,0-10.23,4.32V347.75a69.11,69.11,0,0,1,10.69-3.2,48.68,48.68,0,0,1,9.93-1.07,33.88,33.88,0,0,1,13,2.24,20.49,20.49,0,0,1,8.72,6.73,17,17,0,0,1,2.95,6.75A61.49,61.49,0,0,1,720.27,371.26Zm-19.53,4.16h-3.33q-8.8,0-13.26,3.09t-4.46,9.21c0,3.68,1.11,6.55,3.33,8.59s5.31,3.06,9.25,3.06q8.31,0,13.07-5.77t4.81-15.94v-2.24Z"/><path class="cls-1" d="M790,368.25v38H779.83v-38q0-8.25-2.9-12.14t-9.08-3.88q-7.05,0-10.85,5t-3.8,14.36v34.62H743.13V345H753.2v9.18a18.87,18.87,0,0,1,7.27-7.95,21,21,0,0,1,10.88-2.71q9.36,0,14,6.15T790,368.25Z"/><path class="cls-1" d="M816.59,345h25.76v53.43h20v7.82h-50v-7.82h20V352.78H816.59Zm15.69-23.85h10.07v12.74H832.28Z"/></g></g></g></svg>